<mxfile host="app.diagrams.net" agent="Mozilla/5.0 (Macintosh; Intel Mac OS X 10_15_7) AppleWebKit/605.1.15 (KHTML, like Gecko) Version/17.2.1 Safari/605.1.15" version="27.1.5" pages="2">
  <diagram name="component architecture" id="JjYRDnhpsklhQnJLHSbA">
    <mxGraphModel dx="1773" dy="652" grid="1" gridSize="10" guides="1" tooltips="1" connect="1" arrows="1" fold="1" page="1" pageScale="1" pageWidth="827" pageHeight="1169" math="0" shadow="0">
      <root>
        <mxCell id="0" />
        <mxCell id="1" parent="0" />
        <mxCell id="yLY22gBMcyH7QOwKT4tJ-8" value="" style="rounded=1;whiteSpace=wrap;html=1;fillColor=none;dashed=1;dashPattern=8 8;strokeWidth=3;" vertex="1" parent="1">
          <mxGeometry x="-60" y="130" width="810" height="380" as="geometry" />
        </mxCell>
        <mxCell id="yLY22gBMcyH7QOwKT4tJ-7" style="edgeStyle=orthogonalEdgeStyle;rounded=0;orthogonalLoop=1;jettySize=auto;html=1;exitX=1;exitY=0.5;exitDx=0;exitDy=0;entryX=0;entryY=0.5;entryDx=0;entryDy=0;startArrow=classic;startFill=1;dashed=1;strokeWidth=2;" edge="1" parent="1" source="yLY22gBMcyH7QOwKT4tJ-1" target="yLY22gBMcyH7QOwKT4tJ-2">
          <mxGeometry relative="1" as="geometry" />
        </mxCell>
        <mxCell id="yLY22gBMcyH7QOwKT4tJ-13" style="edgeStyle=orthogonalEdgeStyle;rounded=0;orthogonalLoop=1;jettySize=auto;html=1;dashed=1;strokeWidth=2;startArrow=classic;startFill=1;" edge="1" parent="1" source="yLY22gBMcyH7QOwKT4tJ-1">
          <mxGeometry relative="1" as="geometry">
            <mxPoint x="-20" y="310" as="targetPoint" />
          </mxGeometry>
        </mxCell>
        <mxCell id="yLY22gBMcyH7QOwKT4tJ-1" value="&lt;font style=&quot;font-size: 16px;&quot;&gt;Proxy&lt;/font&gt;&lt;div&gt;&lt;font style=&quot;font-size: 16px;&quot;&gt;Container&lt;/font&gt;&lt;/div&gt;" style="ellipse;whiteSpace=wrap;html=1;aspect=fixed;fillColor=none;fontFamily=Roboto;fontSource=https%3A%2F%2Ffonts.googleapis.com%2Fcss2%3Ffamily%3DRoboto;strokeWidth=2;" vertex="1" parent="1">
          <mxGeometry x="90" y="250" width="120" height="120" as="geometry" />
        </mxCell>
        <mxCell id="yLY22gBMcyH7QOwKT4tJ-2" value="&lt;font style=&quot;font-size: 16px;&quot;&gt;App&lt;/font&gt;&lt;div&gt;&lt;font style=&quot;font-size: 16px;&quot;&gt;Container&lt;/font&gt;&lt;/div&gt;" style="ellipse;whiteSpace=wrap;html=1;aspect=fixed;fillColor=none;fontFamily=Roboto;fontSource=https%3A%2F%2Ffonts.googleapis.com%2Fcss2%3Ffamily%3DRoboto;strokeWidth=2;" vertex="1" parent="1">
          <mxGeometry x="330" y="250" width="120" height="120" as="geometry" />
        </mxCell>
        <mxCell id="yLY22gBMcyH7QOwKT4tJ-6" style="edgeStyle=orthogonalEdgeStyle;rounded=0;orthogonalLoop=1;jettySize=auto;html=1;exitX=0;exitY=0.5;exitDx=0;exitDy=0;entryX=0.5;entryY=1;entryDx=0;entryDy=0;startArrow=classic;startFill=1;strokeWidth=2;dashed=1;" edge="1" parent="1" source="yLY22gBMcyH7QOwKT4tJ-3" target="yLY22gBMcyH7QOwKT4tJ-2">
          <mxGeometry relative="1" as="geometry" />
        </mxCell>
        <mxCell id="yLY22gBMcyH7QOwKT4tJ-3" value="&lt;span style=&quot;font-size: medium;&quot;&gt;Database&lt;/span&gt;&lt;br&gt;&lt;div&gt;&lt;div&gt;&lt;font style=&quot;font-size: 16px;&quot;&gt;Container&lt;/font&gt;&lt;/div&gt;&lt;/div&gt;" style="ellipse;whiteSpace=wrap;html=1;aspect=fixed;fillColor=none;fontFamily=Roboto;fontSource=https%3A%2F%2Ffonts.googleapis.com%2Fcss2%3Ffamily%3DRoboto;strokeWidth=2;" vertex="1" parent="1">
          <mxGeometry x="560" y="360" width="120" height="120" as="geometry" />
        </mxCell>
        <mxCell id="yLY22gBMcyH7QOwKT4tJ-5" style="edgeStyle=orthogonalEdgeStyle;rounded=0;orthogonalLoop=1;jettySize=auto;html=1;exitX=0;exitY=0.5;exitDx=0;exitDy=0;entryX=0.5;entryY=0;entryDx=0;entryDy=0;startArrow=classic;startFill=1;strokeWidth=2;dashed=1;" edge="1" parent="1" source="yLY22gBMcyH7QOwKT4tJ-4" target="yLY22gBMcyH7QOwKT4tJ-2">
          <mxGeometry relative="1" as="geometry" />
        </mxCell>
        <mxCell id="yLY22gBMcyH7QOwKT4tJ-4" value="&lt;span style=&quot;font-size: medium;&quot;&gt;In-Memory DB&lt;/span&gt;&lt;br&gt;&lt;div&gt;&lt;div&gt;&lt;font style=&quot;font-size: 16px;&quot;&gt;Container&lt;/font&gt;&lt;/div&gt;&lt;/div&gt;" style="ellipse;whiteSpace=wrap;html=1;aspect=fixed;fillColor=none;fontFamily=Roboto;fontSource=https%3A%2F%2Ffonts.googleapis.com%2Fcss2%3Ffamily%3DRoboto;strokeWidth=2;" vertex="1" parent="1">
          <mxGeometry x="560" y="160" width="120" height="120" as="geometry" />
        </mxCell>
        <mxCell id="yLY22gBMcyH7QOwKT4tJ-12" value="" style="group" vertex="1" connectable="0" parent="1">
          <mxGeometry x="-110" y="270" width="100" height="80" as="geometry" />
        </mxCell>
        <mxCell id="yLY22gBMcyH7QOwKT4tJ-9" value="" style="shape=lineEllipse;line=vertical;perimeter=ellipsePerimeter;whiteSpace=wrap;html=1;backgroundOutline=1;strokeWidth=2;" vertex="1" parent="yLY22gBMcyH7QOwKT4tJ-12">
          <mxGeometry x="10" width="80" height="80" as="geometry" />
        </mxCell>
        <mxCell id="yLY22gBMcyH7QOwKT4tJ-10" value="&lt;font style=&quot;font-size: 16px;&quot;&gt;80&lt;/font&gt;&lt;div&gt;&lt;font style=&quot;font-size: 16px;&quot;&gt;443&lt;/font&gt;&lt;/div&gt;" style="text;html=1;align=center;verticalAlign=middle;whiteSpace=wrap;rounded=0;fontFamily=Roboto;fontSource=https%3A%2F%2Ffonts.googleapis.com%2Fcss2%3Ffamily%3DRoboto;" vertex="1" parent="yLY22gBMcyH7QOwKT4tJ-12">
          <mxGeometry y="25" width="60" height="30" as="geometry" />
        </mxCell>
        <mxCell id="yLY22gBMcyH7QOwKT4tJ-11" value="&lt;font size=&quot;3&quot;&gt;8080&lt;/font&gt;" style="text;html=1;align=center;verticalAlign=middle;whiteSpace=wrap;rounded=0;fontFamily=Roboto;fontSource=https%3A%2F%2Ffonts.googleapis.com%2Fcss2%3Ffamily%3DRoboto;" vertex="1" parent="yLY22gBMcyH7QOwKT4tJ-12">
          <mxGeometry x="40" y="25" width="60" height="30" as="geometry" />
        </mxCell>
        <mxCell id="yLY22gBMcyH7QOwKT4tJ-14" value="&lt;font&gt;Private Network&lt;/font&gt;" style="text;html=1;align=left;verticalAlign=middle;whiteSpace=wrap;rounded=0;fontFamily=Roboto;fontSource=https%3A%2F%2Ffonts.googleapis.com%2Fcss2%3Ffamily%3DRoboto;fontSize=16;" vertex="1" parent="1">
          <mxGeometry x="285" y="100" width="120" height="30" as="geometry" />
        </mxCell>
      </root>
    </mxGraphModel>
  </diagram>
  <diagram id="h7hZTXUT4LAOoqjZZkxT" name="solution architecture">
    <mxGraphModel dx="946" dy="652" grid="1" gridSize="10" guides="1" tooltips="1" connect="1" arrows="1" fold="1" page="1" pageScale="1" pageWidth="827" pageHeight="1169" math="0" shadow="0">
      <root>
        <mxCell id="0" />
        <mxCell id="1" parent="0" />
        <mxCell id="nzbhsoZNMwPkH9M17XqE-15" value="" style="rounded=1;whiteSpace=wrap;html=1;fillColor=none;dashed=1;dashPattern=8 8;strokeWidth=3;" vertex="1" parent="1">
          <mxGeometry x="170" y="1130" width="1010" height="380" as="geometry" />
        </mxCell>
        <mxCell id="nzbhsoZNMwPkH9M17XqE-16" style="edgeStyle=orthogonalEdgeStyle;rounded=0;orthogonalLoop=1;jettySize=auto;html=1;exitX=1;exitY=0.5;exitDx=0;exitDy=0;entryX=0;entryY=0.5;entryDx=0;entryDy=0;startArrow=classic;startFill=1;dashed=1;strokeWidth=2;" edge="1" parent="1" source="nzbhsoZNMwPkH9M17XqE-18" target="nzbhsoZNMwPkH9M17XqE-19">
          <mxGeometry relative="1" as="geometry" />
        </mxCell>
        <mxCell id="nzbhsoZNMwPkH9M17XqE-17" style="edgeStyle=orthogonalEdgeStyle;rounded=0;orthogonalLoop=1;jettySize=auto;html=1;dashed=1;strokeWidth=2;startArrow=classic;startFill=1;" edge="1" parent="1" source="nzbhsoZNMwPkH9M17XqE-18">
          <mxGeometry relative="1" as="geometry">
            <mxPoint x="210" y="1310" as="targetPoint" />
          </mxGeometry>
        </mxCell>
        <mxCell id="nzbhsoZNMwPkH9M17XqE-18" value="&lt;font style=&quot;font-size: 16px;&quot;&gt;NGINX&lt;/font&gt;&lt;div&gt;&lt;font style=&quot;font-size: 16px;&quot;&gt;Container&lt;/font&gt;&lt;/div&gt;" style="ellipse;whiteSpace=wrap;html=1;aspect=fixed;fillColor=none;fontFamily=Roboto;fontSource=https%3A%2F%2Ffonts.googleapis.com%2Fcss2%3Ffamily%3DRoboto;strokeWidth=2;" vertex="1" parent="1">
          <mxGeometry x="320" y="1250" width="120" height="120" as="geometry" />
        </mxCell>
        <mxCell id="nzbhsoZNMwPkH9M17XqE-19" value="&lt;font style=&quot;font-size: 16px;&quot;&gt;Node.js&lt;/font&gt;&lt;div&gt;&lt;font style=&quot;font-size: 16px;&quot;&gt;Container&lt;/font&gt;&lt;/div&gt;" style="ellipse;whiteSpace=wrap;html=1;aspect=fixed;fillColor=none;fontFamily=Roboto;fontSource=https%3A%2F%2Ffonts.googleapis.com%2Fcss2%3Ffamily%3DRoboto;strokeWidth=2;" vertex="1" parent="1">
          <mxGeometry x="560" y="1250" width="120" height="120" as="geometry" />
        </mxCell>
        <mxCell id="nzbhsoZNMwPkH9M17XqE-20" style="edgeStyle=orthogonalEdgeStyle;rounded=0;orthogonalLoop=1;jettySize=auto;html=1;exitX=0;exitY=0.5;exitDx=0;exitDy=0;entryX=0.5;entryY=1;entryDx=0;entryDy=0;startArrow=classic;startFill=1;strokeWidth=2;dashed=1;" edge="1" parent="1" source="nzbhsoZNMwPkH9M17XqE-21" target="nzbhsoZNMwPkH9M17XqE-19">
          <mxGeometry relative="1" as="geometry" />
        </mxCell>
        <mxCell id="Ilw6gOQV5H3u4IqX1XS8-2" style="edgeStyle=orthogonalEdgeStyle;rounded=0;orthogonalLoop=1;jettySize=auto;html=1;exitX=1;exitY=0.5;exitDx=0;exitDy=0;entryX=0;entryY=0.5;entryDx=0;entryDy=0;dashed=1;strokeWidth=2;startArrow=classic;startFill=0;endArrow=none;" edge="1" parent="1" source="nzbhsoZNMwPkH9M17XqE-21" target="Ilw6gOQV5H3u4IqX1XS8-1">
          <mxGeometry relative="1" as="geometry" />
        </mxCell>
        <mxCell id="nzbhsoZNMwPkH9M17XqE-21" value="&lt;span style=&quot;font-size: medium;&quot;&gt;Postgres&lt;/span&gt;&lt;br&gt;&lt;div&gt;&lt;div&gt;&lt;font style=&quot;font-size: 16px;&quot;&gt;Container&lt;/font&gt;&lt;/div&gt;&lt;/div&gt;" style="ellipse;whiteSpace=wrap;html=1;aspect=fixed;fillColor=none;fontFamily=Roboto;fontSource=https%3A%2F%2Ffonts.googleapis.com%2Fcss2%3Ffamily%3DRoboto;strokeWidth=2;" vertex="1" parent="1">
          <mxGeometry x="790" y="1360" width="120" height="120" as="geometry" />
        </mxCell>
        <mxCell id="nzbhsoZNMwPkH9M17XqE-22" style="edgeStyle=orthogonalEdgeStyle;rounded=0;orthogonalLoop=1;jettySize=auto;html=1;exitX=0;exitY=0.5;exitDx=0;exitDy=0;entryX=0.5;entryY=0;entryDx=0;entryDy=0;startArrow=classic;startFill=1;strokeWidth=2;dashed=1;" edge="1" parent="1" source="nzbhsoZNMwPkH9M17XqE-23" target="nzbhsoZNMwPkH9M17XqE-19">
          <mxGeometry relative="1" as="geometry" />
        </mxCell>
        <mxCell id="nzbhsoZNMwPkH9M17XqE-23" value="&lt;span style=&quot;font-size: medium;&quot;&gt;Redis&lt;/span&gt;&lt;br&gt;&lt;div&gt;&lt;div&gt;&lt;font style=&quot;font-size: 16px;&quot;&gt;Container&lt;/font&gt;&lt;/div&gt;&lt;/div&gt;" style="ellipse;whiteSpace=wrap;html=1;aspect=fixed;fillColor=none;fontFamily=Roboto;fontSource=https%3A%2F%2Ffonts.googleapis.com%2Fcss2%3Ffamily%3DRoboto;strokeWidth=2;" vertex="1" parent="1">
          <mxGeometry x="790" y="1160" width="120" height="120" as="geometry" />
        </mxCell>
        <mxCell id="nzbhsoZNMwPkH9M17XqE-24" value="" style="group" vertex="1" connectable="0" parent="1">
          <mxGeometry x="120" y="1270" width="100" height="80" as="geometry" />
        </mxCell>
        <mxCell id="nzbhsoZNMwPkH9M17XqE-25" value="" style="shape=lineEllipse;line=vertical;perimeter=ellipsePerimeter;whiteSpace=wrap;html=1;backgroundOutline=1;strokeWidth=2;" vertex="1" parent="nzbhsoZNMwPkH9M17XqE-24">
          <mxGeometry x="10" width="80" height="80" as="geometry" />
        </mxCell>
        <mxCell id="nzbhsoZNMwPkH9M17XqE-26" value="&lt;font style=&quot;font-size: 16px;&quot;&gt;80&lt;/font&gt;&lt;div&gt;&lt;font style=&quot;font-size: 16px;&quot;&gt;443&lt;/font&gt;&lt;/div&gt;" style="text;html=1;align=center;verticalAlign=middle;whiteSpace=wrap;rounded=0;fontFamily=Roboto;fontSource=https%3A%2F%2Ffonts.googleapis.com%2Fcss2%3Ffamily%3DRoboto;" vertex="1" parent="nzbhsoZNMwPkH9M17XqE-24">
          <mxGeometry y="25" width="60" height="30" as="geometry" />
        </mxCell>
        <mxCell id="nzbhsoZNMwPkH9M17XqE-27" value="&lt;font size=&quot;3&quot;&gt;8080&lt;/font&gt;" style="text;html=1;align=center;verticalAlign=middle;whiteSpace=wrap;rounded=0;fontFamily=Roboto;fontSource=https%3A%2F%2Ffonts.googleapis.com%2Fcss2%3Ffamily%3DRoboto;" vertex="1" parent="nzbhsoZNMwPkH9M17XqE-24">
          <mxGeometry x="40" y="25" width="60" height="30" as="geometry" />
        </mxCell>
        <mxCell id="nzbhsoZNMwPkH9M17XqE-28" value="&lt;font&gt;Docker Network&lt;/font&gt;" style="text;html=1;align=left;verticalAlign=middle;whiteSpace=wrap;rounded=0;fontFamily=Roboto;fontSource=https%3A%2F%2Ffonts.googleapis.com%2Fcss2%3Ffamily%3DRoboto;fontSize=16;" vertex="1" parent="1">
          <mxGeometry x="615" y="1100" width="120" height="30" as="geometry" />
        </mxCell>
        <mxCell id="Ilw6gOQV5H3u4IqX1XS8-1" value="&lt;font size=&quot;3&quot;&gt;knex&lt;/font&gt;&lt;br&gt;&lt;div&gt;&lt;div&gt;&lt;font style=&quot;font-size: 16px;&quot;&gt;Container&lt;/font&gt;&lt;/div&gt;&lt;/div&gt;" style="ellipse;whiteSpace=wrap;html=1;aspect=fixed;fillColor=none;fontFamily=Roboto;fontSource=https%3A%2F%2Ffonts.googleapis.com%2Fcss2%3Ffamily%3DRoboto;strokeWidth=2;" vertex="1" parent="1">
          <mxGeometry x="1020" y="1360" width="120" height="120" as="geometry" />
        </mxCell>
      </root>
    </mxGraphModel>
  </diagram>
</mxfile>
